<svg xmlns="http://www.w3.org/2000/svg" viewBox="0 0 25.64 33.01"><title>delete_icon</title><g id="Layer_2" data-name="Layer 2"><g id="Layer_2-2" data-name="Layer 2"><path d="M1.83,18.7q0-4.81,0-9.63c0-1.51.19-1.7,1.73-1.7H22c1.6,0,1.78.17,1.78,1.78,0,6.23,0,12.45,0,18.68a10.21,10.21,0,0,1-.27,2.27,3.26,3.26,0,0,1-2.59,2.61,12.44,12.44,0,0,1-2.5.28Q12.82,33,7.2,33a13.85,13.85,0,0,1-2.49-.27,3.18,3.18,0,0,1-2.58-2.48,10,10,0,0,1-.28-2.37C1.81,24.81,1.83,21.75,1.83,18.7Z"/><path d="M12.81,5.49H1.7C.17,5.48,0,5.27,0,3.63S.19,1.89,1.69,1.87c.76,0,1.53-.05,2.29,0a4.4,4.4,0,0,0,4-1.32A2.53,2.53,0,0,1,9.61.05C11.75,0,13.89,0,16,.07a7.49,7.49,0,0,1,2.14.84,9.84,9.84,0,0,0,2.35.91c1.24.16,2.52,0,3.78.06s1.33.31,1.34,1.87c0,1-.09,1.76-1.37,1.75-3.82,0-7.64,0-11.46,0Z"/></g></g></svg>