<svg xmlns="http://www.w3.org/2000/svg" viewBox="0 0 509.17 458"><title>finalempty</title><g id="Layer_2" data-name="Layer 2"><g id="Layer_1-2" data-name="Layer 1"><path d="M244.54,458c-4.22-.77-8.47-1.45-12.68-2.33-26.18-5.47-44.78-20.51-55.62-44.86-2.08-4.65-4.38-6.51-9.58-6.42-17.66.33-35.33.13-53,.12-38.85,0-70.95-28.69-75.84-67.26-5.17-40.86,25.32-79.51,65.94-83.71,12.71-1.31,25.6-.9,38.42-1,17-.15,34-.29,51,.1,5.68.13,7.53-1.91,8.89-7.19C215.12,195,246.74,162,297,148.41c72.06-19.42,146.62,28.52,160.08,102,.8,4.35,2.71,6.75,6.84,8.7,29,13.69,45,36.53,45.23,68.88s-15.62,55.35-44.32,69.53a16.66,16.66,0,0,0-8.9,9.71c-11.73,29.14-33.18,45.87-64.62,49.4a49.54,49.54,0,0,0-5.79,1.36ZM315,434.24v-.73c25.15,0,50.32.64,75.45-.19,23.25-.77,44.36-21.8,46.52-44.86.44-4.81,2-7.23,7.23-8.28,26.86-5.46,47.28-30.66,40.93-62.72-4.28-21.65-21.4-37.52-43.28-40.91-4.37-.68-5.84-2.72-5.89-7a82.61,82.61,0,0,0-1.37-14.39c-12.47-65.61-79.11-103.91-142.08-81.49-41.52,14.78-68.41,53.38-70.39,94-.37,7.66-.27,7.81-8,7.81-33.5,0-67-.18-100.49.07-33.84.25-58.23,29.76-52.38,62.89,4.26,24.13,26.37,42.73,51.41,42.92,24.67.18,49.34.12,74,0,4.31,0,6.35,1.29,6.83,5.77a49.87,49.87,0,0,0,8.75,23.65c11.48,16.37,27.64,23.37,47.22,23.4Q282.23,434.28,315,434.24Z"/><path d="M257.54,0c2.28,3.35,4.9,6.52,6.78,10.08,4.8,9.11,8.78,18.7,14,27.57,8.92,15.19,23.28,21.32,40.3,21.75,7.47.19,15-.38,22.43-.79,5.91-.33,9.12,2.41,9,8.48-.1,7.81-.9,15.64-.54,23.42.48,10.19,2.72,20.07,9.3,29.49-8.94-1-16.84-1.64-24.65-2.89-1.76-.29-3.48-2.43-4.73-4.08-26.67-35.25-61.74-57.2-105.61-62-65-7.12-116.3,17.59-152.32,72.33-17,25.76-23.92,54.83-23.23,85.52.24,10.41,2.36,20.8,4.07,31.13.59,3.59-.17,5.73-2.76,8.27-7,6.85-13.71,14-20.18,21.36-2.15,2.44-3.65,3.12-6.67,1.7-5.57-2.63-11.34-4.81-17-7.14-6.28-2.57-7.25-6.43-3.55-12.18,5.86-9.07,12-18.05,17-27.58,6.5-12.36,6.8-25.51.5-38a251.43,251.43,0,0,0-16.16-26.9C-2,151.42-1.14,148.58,7.81,144.6a285.11,285.11,0,0,0,29.41-14.72c14.5-8.57,20.31-22.44,20.73-38.73.21-8-.32-16-.65-23.94-.26-6.07,3.79-8.79,10.6-8.56,10.43.35,21,.56,31.33-.57,13.2-1.44,23.36-8.88,30-20.24,5.28-9,9.33-18.75,14.25-28,1.88-3.53,4.68-6.58,7-9.85h1c8.52,5.75,16.82,11.83,25.58,17.17,18.41,11.22,36.94,10.44,55-.83,8.3-5.16,16.26-10.88,24.37-16.34Z"/><path d="M304,119.3c-3.37.76-6.27,1.35-9.14,2.06-54.4,13.32-92.16,45.89-112.82,98-1.92,4.84-4.35,6.6-9.49,6.53-18.32-.26-36.65-.23-55-.05-12.51.13-24.92,1.28-36.87,5.49-6,2.12-6.4,1.87-7.42-4.29-4.25-25.62-1.71-50.6,9-74.25,20.38-45.07,55.4-72,104.31-78.81,44.32-6.15,82.31,8.46,113.75,40.2a39.53,39.53,0,0,1,2.6,3A16.53,16.53,0,0,1,304,119.3Z"/></g></g></svg>