<svg xmlns="http://www.w3.org/2000/svg" xmlns:xlink="http://www.w3.org/1999/xlink" viewBox="0 0 408.51 408.51"><defs><linearGradient id="linear-gradient" y1="204.26" x2="408.51" y2="204.26" gradientUnits="userSpaceOnUse"><stop offset="0" stop-color="#00aeef"/><stop offset="1" stop-color="#f15a29"/></linearGradient><linearGradient id="linear-gradient-2" x1="35.63" y1="204.78" x2="373.97" y2="204.78" gradientUnits="userSpaceOnUse"><stop offset="0" stop-color="#00b9f2"/><stop offset="1" stop-color="#f47c4b"/></linearGradient><linearGradient id="linear-gradient-3" x1="71.27" y1="205.31" x2="339.43" y2="205.31" gradientUnits="userSpaceOnUse"><stop offset="0" stop-color="#44c8f5"/><stop offset="1" stop-color="#f79a70"/></linearGradient><linearGradient id="linear-gradient-4" x1="106.9" y1="205.84" x2="304.89" y2="205.84" gradientUnits="userSpaceOnUse"><stop offset="0" stop-color="#8ed8f8"/><stop offset="1" stop-color="#fbb998"/></linearGradient><linearGradient id="linear-gradient-5" x1="142.54" y1="206.37" x2="270.35" y2="206.37" gradientUnits="userSpaceOnUse"><stop offset="0" stop-color="#c7eafb"/><stop offset="1" stop-color="#fddac6"/></linearGradient></defs><title>icon_dot</title><g id="Layer_2" data-name="Layer 2"><g id="Layer_3" data-name="Layer 3"><circle cx="204.26" cy="204.26" r="204.26" fill="url(#linear-gradient)"/><path d="M206.08,35.61c29.78,0,60.41,9.38,84.45,23.3,24.78,14.34,47.09,37.58,61.43,62.37,13.92,24,22,55,22,84.78s-9.38,60.41-23.29,84.45c-14.34,24.78-37.59,47.09-62.37,61.43-24,13.92-55,22-84.79,22s-60.4-9.37-84.44-23.29C94.3,336.32,72,313.07,57.64,288.29c-13.91-24-22-55-22-84.79s9.38-60.4,23.3-84.44C73.27,94.28,96.51,72,121.3,57.62,145.34,43.71,176.31,35.61,206.08,35.61Z" fill="url(#linear-gradient-2)"/><path d="M207.91,71.23c22.33,0,48.69,8.8,66.72,19.23,18.59,10.76,37.37,31.42,48.13,50,10.44,18,16.67,45.07,16.67,67.4s-8.8,48.69-19.23,66.72c-10.76,18.59-31.42,37.37-50,48.13-18,10.44-45.08,16.67-67.41,16.67s-48.69-8.8-66.72-19.23c-18.59-10.76-37.37-31.42-48.13-50-10.43-18-16.67-45.08-16.67-67.41S80.07,154.06,90.5,136c10.76-18.59,31.42-37.37,50-48.13C158.54,77.47,185.58,71.23,207.91,71.23Z" fill="url(#linear-gradient-3)"/><path d="M209.74,106.84c14.89,0,37,8.22,49,15.18,12.39,7.17,27.65,25.24,34.82,37.63,7,12,11.33,35.14,11.33,50s-8.22,37-15.17,49c-7.18,12.39-25.25,27.65-37.64,34.82-12,7-35.14,11.33-50,11.33s-37-8.22-49-15.17c-12.39-7.18-27.65-25.25-34.82-37.64-7-12-11.34-35.14-11.34-50s8.22-37,15.18-49c7.17-12.39,25.24-27.65,37.63-34.82C171.73,111.22,194.85,106.84,209.74,106.84Z" fill="url(#linear-gradient-4)"/><path d="M211.57,142.46c7.44,0,25.26,7.64,31.27,11.12,6.2,3.58,17.93,19.07,21.52,25.26,3.48,6,6,25.21,6,32.65s-7.64,25.26-11.12,31.27c-3.58,6.2-19.06,17.93-25.26,21.52-6,3.48-25.2,6-32.65,6s-25.26-7.64-31.27-11.12c-6.2-3.58-17.93-19.06-21.52-25.26-3.47-6-6-25.2-6-32.65S150.18,176,153.66,170c3.58-6.2,19.07-17.93,25.26-21.52C184.93,145,204.13,142.46,211.57,142.46Z" fill="url(#linear-gradient-5)"/><polygon points="235.81 213.3 228.75 226.85 215.86 235.06 200.59 235.72 187.04 228.65 178.83 215.76 178.17 200.49 185.24 186.94 198.13 178.73 213.4 178.07 226.95 185.13 235.16 198.03 235.81 213.3" fill="#fff"/><circle cx="204.26" cy="204.26" r="175.8" transform="translate(-1.45 1.46) rotate(-0.41)" fill="#fff" opacity="0.44"/><circle cx="204.53" cy="204.26" r="152.55" transform="translate(-1.45 1.46) rotate(-0.41)" fill="#d7dfe6" opacity="0.53"/><circle cx="204.81" cy="204.26" r="129.31" transform="translate(-1.45 1.47) rotate(-0.41)" fill="#b5c6d4" opacity="0.61"/><circle cx="205.09" cy="204.26" r="106.06" transform="translate(-1.45 1.47) rotate(-0.41)" fill="#96b0c4" opacity="0.7"/><circle cx="205.37" cy="204.26" r="82.82" transform="translate(-1.45 1.47) rotate(-0.41)" fill="#779db5" opacity="0.79"/><circle cx="205.65" cy="204.26" r="59.57" transform="translate(-1.45 1.47) rotate(-0.41)" fill="#588ca7" opacity="0.87"/><rect x="180.24" y="178.57" width="51.37" height="51.37" transform="translate(-84.12 205.44) rotate(-45)" fill="#307d9b" opacity="0.96"/></g></g></svg>