<svg xmlns="http://www.w3.org/2000/svg" viewBox="0 0 169.54 58.58"><title>logo</title><g id="Layer_2" data-name="Layer 2"><g id="Layer_1-2" data-name="Layer 1"><path d="M37.56,25.63c3.08,2.73,6.23,5.2,9,8.05C52,39.31,49.59,47.74,42.1,50c-3.38,1-6.13-.35-8.53-2.51-2.13-1.92-4.11-4-6.1-6.07s-4.07-2.07-6.1.06c-1.64,1.72-3.31,3.41-5,5C12,50.57,7,50.71,3,46.88a9.48,9.48,0,0,1-.12-13.74c2.59-2.67,5.55-5,9.41-8.36C8.83,21.84,6,19.93,3.79,17.46-1.25,11.85.05,4.1,6.32,1.58,9.89.15,13.46.3,16.36,3.27,19,6,21.48,8.71,24.42,11.85c3.16-3.33,5.82-6.31,8.66-9.1A8.77,8.77,0,0,1,45,2c4.22,3.41,5.43,8.47,2.42,12.58C44.74,18.12,41.48,21.25,37.56,25.63Zm-7.47-.53a5.53,5.53,0,0,0-5.4-5.5,5.68,5.68,0,0,0-5.84,5.48,5.77,5.77,0,0,0,5.61,5.8A5.75,5.75,0,0,0,30.09,25.1Z" fill="#a7d2cc"/><path d="M119.47,24.86c0-3-.34-6,.14-8.95a5.89,5.89,0,0,1,3-4c5.74-2.11,13.84.39,17.68,5.16a12.5,12.5,0,0,1,2,13.34c-2.06,4.94-6,7.74-11.3,7.83-11.42.18-11.82,1.23-11.54-10.74C119.48,26.61,119.46,25.74,119.47,24.86ZM127.79,20V30.66c3-1.4,5.51-2,7.1-3.59.84-.83.56-3.6-.16-5C133.38,19.34,130.7,19.16,127.79,20Z" fill="#f2cd67"/><path d="M103.87,37.75a13.07,13.07,0,0,1-13-13.13,13.24,13.24,0,0,1,13-13.17A13,13,0,0,1,117,24.84,12.93,12.93,0,0,1,103.87,37.75Zm5-12.85A4.93,4.93,0,1,0,99,24.36a4.78,4.78,0,0,0,4.68,5.16A4.64,4.64,0,0,0,108.88,24.9Z" fill="#f3cc63"/><path d="M88.19,24.62c0,3,.17,6-.06,8.94-.19,2.55-1.49,4.76-4.37,4.61S79.6,35.84,79.62,33c0-5.35,0-10.69,0-16,0-3,1.18-5.34,4.4-5.3,3,0,4.14,2.45,4.28,5.16s0,5.22,0,7.83Z" fill="#f3cd63"/><path d="M66.93,24.91c0,3,.43,6.08-.18,9C66.4,35.51,64.56,37.68,63,38c-2.44.56-4.27-1.42-4.33-4-.15-6.11-.17-12.23,0-18.34.08-2.55,1.93-4.55,4.39-3.94,1.53.38,3.32,2.56,3.67,4.21C67.36,18.83,66.93,21.92,66.93,24.91Z" fill="#f3cc63"/><path d="M77.44,25.25c0,2.87.44,5.84-.17,8.57-.38,1.66-2.16,3.84-3.7,4.21-2.44.6-4.3-1.39-4.37-4q-.26-9.16,0-18.33a4,4,0,0,1,4.41-4.12c2.63.16,3.84,2,3.82,4.64C77.43,19.26,77.44,22.25,77.44,25.25Z" fill="#f3cc63"/><path d="M157.33,19.47c-2.5,0-5,.17-7.49,0-2.28-.19-4.58-1.44-4-3.9.37-1.56,2.56-3.65,4.08-3.79a90.58,90.58,0,0,1,15.71,0c1.4.12,3.39,2.19,3.74,3.69.57,2.43-1.44,3.88-3.82,4-2.74.18-5.49,0-8.24,0Z" fill="#f0cd6c"/><path d="M157.57,21.05c2.61,0,5.22,0,7.83,0,2.46,0,4.17,1,4.12,3.69s-1.68,3.78-4.13,3.8c-5.22.06-10.44.09-15.65,0-2.44-.05-4.09-1.44-4-4,.1-2.28,1.58-3.53,4-3.51C152.35,21.07,155,21.05,157.57,21.05Z" fill="#f3cd65"/><path d="M157.63,37.66c-2.6,0-5.21,0-7.82,0s-4.43-1.4-3.92-3.8a5.51,5.51,0,0,1,3.85-3.49c5.31-.42,10.67-.24,16-.13,2.21.05,3.82,1.17,3.79,3.68s-1.58,3.74-4.08,3.75S160.24,37.66,157.63,37.66Z" fill="#f3cc63"/><path d="M31.73,48.58c.05,4.33-4.44,9.89-7.12,10s-8.06-5.5-6.91-8.53,4.35-6.64,7-6.93C27,42.86,29.76,46.92,31.73,48.58Z" fill="#f3cd64"/><path d="M50.07,30.2c-1.85-2.35-3.87-3.84-3.67-4.93.26-1.46,2.23-2.62,3.47-3.91,1.14,1.22,3,2.34,3.22,3.69S51.59,27.78,50.07,30.2Z" fill="#f3cd67"/></g></g></svg>