<svg xmlns="http://www.w3.org/2000/svg" xmlns:xlink="http://www.w3.org/1999/xlink" viewBox="0 0 304.51 46.49"><defs><linearGradient id="linear-gradient" x1="134.68" y1="2.39" x2="149.61" y2="54.66" gradientUnits="userSpaceOnUse"><stop offset="0" stop-color="#a7a9ac"/><stop offset="1" stop-color="#808285"/></linearGradient><linearGradient id="linear-gradient-8" x1="288.29" y1="38.38" x2="304.51" y2="38.38" gradientTransform="translate(332.91 -258.25) rotate(89.64)" gradientUnits="userSpaceOnUse"><stop offset="0" stop-color="#00aeef"/><stop offset="1" stop-color="#f15a29"/></linearGradient><linearGradient id="linear-gradient-9" x1="289.7" y1="38.4" x2="303.14" y2="38.4" gradientUnits="userSpaceOnUse"><stop offset="0" stop-color="#00b9f2"/><stop offset="1" stop-color="#f47c4b"/></linearGradient><linearGradient id="linear-gradient-10" x1="291.12" y1="38.42" x2="301.77" y2="38.42" gradientUnits="userSpaceOnUse"><stop offset="0" stop-color="#44c8f5"/><stop offset="1" stop-color="#f79a70"/></linearGradient><linearGradient id="linear-gradient-11" x1="292.53" y1="38.44" x2="300.39" y2="38.44" gradientUnits="userSpaceOnUse"><stop offset="0" stop-color="#8ed8f8"/><stop offset="1" stop-color="#fbb998"/></linearGradient><linearGradient id="linear-gradient-12" x1="293.95" y1="38.46" x2="299.02" y2="38.46" gradientUnits="userSpaceOnUse"><stop offset="0" stop-color="#c7eafb"/><stop offset="1" stop-color="#fddac6"/></linearGradient></defs><title>weather_logo_title</title><g id="Layer_2" data-name="Layer 2"><g id="Layer_2-2" data-name="Layer 2"><g id="icon_no_drops" data-name="icon no drops"><path d="M38.05,12.6V41.38a4.24,4.24,0,0,1-1.2,3A3.82,3.82,0,0,1,34,45.67H9.2a8.69,8.69,0,0,1-4.63-1.29,9.29,9.29,0,0,1-3.34-3.5A9.86,9.86,0,0,1,0,36V12.6H4.79a.65.65,0,0,1,.5.2.62.62,0,0,1,.19.46v23a3.9,3.9,0,0,0,1.07,2.78A3.52,3.52,0,0,0,9.2,40.18h8.19a1.87,1.87,0,0,1-.79-.76,2.13,2.13,0,0,1-.28-1.09V12.6H21.1a.69.69,0,0,1,.51.2.62.62,0,0,1,.19.46v26.2A.73.73,0,0,0,22,40a.58.58,0,0,0,.44.19h9.51a.58.58,0,0,0,.44-.19.73.73,0,0,0,.19-.53V13.26a.62.62,0,0,1,.19-.46.67.67,0,0,1,.5-.2Z" fill="url(#linear-gradient)"/><path d="M62.78,44.38a9.29,9.29,0,0,1-3.34-3.5A9.86,9.86,0,0,1,58.21,36V22a9,9,0,0,1,2.62-6.91,9.18,9.18,0,0,1,6.58-2.48h8.44a9.18,9.18,0,0,1,6.58,2.48A9,9,0,0,1,85.05,22V29.6a3,3,0,0,1-.32,1.52,1.42,1.42,0,0,1-1.32.53H66.15a2.84,2.84,0,0,1-2.46-1.26v5.89a3.9,3.9,0,0,0,1.07,2.78,3.52,3.52,0,0,0,2.65,1.12H83a.69.69,0,0,1,.51.2.76.76,0,0,1,.19.53v4.76H67.41A8.72,8.72,0,0,1,62.78,44.38Zm2-25.36a3.84,3.84,0,0,0-1,2.91V25.5a.69.69,0,0,0,.63.73H79a.65.65,0,0,0,.51-.23.81.81,0,0,0,.18-.5V21.93c0-2.6-1.21-3.91-3.65-3.91H67.41A3.69,3.69,0,0,0,64.73,19Z" fill="url(#linear-gradient)"/><path d="M127.48,15.05a8.88,8.88,0,0,1,2.61,6.81v21.7a2.19,2.19,0,0,1-.56,1.49,1.86,1.86,0,0,1-1.45.62H113.34a8.69,8.69,0,0,1-4.63-1.29,9.29,9.29,0,0,1-3.34-3.5A9.86,9.86,0,0,1,104.14,36V34a9.87,9.87,0,0,1,1.23-4.87,9.36,9.36,0,0,1,3.34-3.5,8.69,8.69,0,0,1,4.63-1.29H124a.65.65,0,0,0,.51-.23.82.82,0,0,0,.19-.5V21.93a4,4,0,0,0-1-2.78A3.54,3.54,0,0,0,120.9,18H108.36a.61.61,0,0,1-.47-.23.69.69,0,0,1-.22-.49V12.6H120.9A9.26,9.26,0,0,1,127.48,15.05ZM110.69,38.93a3.51,3.51,0,0,0,2.65,1.12h10.71a.58.58,0,0,0,.44-.2.76.76,0,0,0,.19-.53V28.81a2,2,0,0,1-1.64,1h-9.7a3.51,3.51,0,0,0-2.65,1.12,3.86,3.86,0,0,0-1.07,2.78v2.45A3.86,3.86,0,0,0,110.69,38.93Z" fill="url(#linear-gradient)"/><path d="M164.1,40.8a.67.67,0,0,1,.17.49v4.38h-5.85a8.1,8.1,0,0,1-4.24-1.18,8.51,8.51,0,0,1-3.1-3.23A9.12,9.12,0,0,1,150,36.78V.49h4.41a.62.62,0,0,1,.46.18.65.65,0,0,1,.17.49V16.38a2.06,2.06,0,0,1,.67-.79,1.75,1.75,0,0,1,1-.3h6.14v4.38a.6.6,0,0,1-.17.43.62.62,0,0,1-.46.18H155V37a3.55,3.55,0,0,0,1,2.55,3.21,3.21,0,0,0,2.44,1h5.22A.62.62,0,0,1,164.1,40.8Z" fill="url(#linear-gradient)"/><path d="M181.15,0h4.41a.6.6,0,0,1,.46.18.67.67,0,0,1,.18.49v16.5a4.47,4.47,0,0,1,1.62-1.4,5,5,0,0,1,2.32-.55h7.37a8,8,0,0,1,5.86,2.2,8.57,8.57,0,0,1,2.2,6.33V45.67h-4.41a.59.59,0,0,1-.43-.21.63.63,0,0,1-.21-.46V23.87a3.58,3.58,0,0,0-1-2.56,3.27,3.27,0,0,0-2.44-1H189a3,3,0,0,0-1.94,1,3.33,3.33,0,0,0-.84,2.1V45.67h-4.41a.59.59,0,0,1-.43-.21.63.63,0,0,1-.21-.46Z" fill="url(#linear-gradient)"/><path d="M228.16,44.49a8.51,8.51,0,0,1-3.07-3.23A9,9,0,0,1,224,36.78V23.87a8.35,8.35,0,0,1,2.4-6.36,8.49,8.49,0,0,1,6.06-2.29h7.78a8.49,8.49,0,0,1,6.06,2.29,8.35,8.35,0,0,1,2.4,6.36v7a2.73,2.73,0,0,1-.29,1.4,1.31,1.31,0,0,1-1.21.48h-15.9A2.61,2.61,0,0,1,229,31.61V37a3.55,3.55,0,0,0,1,2.55,3.19,3.19,0,0,0,2.43,1h14.39a.6.6,0,0,1,.46.18.67.67,0,0,1,.18.49v4.38h-15A8,8,0,0,1,228.16,44.49ZM230,21.13a3.53,3.53,0,0,0-1,2.68V27.1a.63.63,0,0,0,.58.67H243.1a.57.57,0,0,0,.46-.21.69.69,0,0,0,.17-.46V23.81q0-3.58-3.36-3.59h-8A3.42,3.42,0,0,0,230,21.13Z" fill="url(#linear-gradient)"/><path d="M283.06,15.22v4.39a.72.72,0,0,1-.18.46.56.56,0,0,1-.46.21h-7.25a2.53,2.53,0,0,0-1.92.79,3.25,3.25,0,0,0-.87,1.95V45.67H268a.61.61,0,0,1-.44-.21.66.66,0,0,1-.2-.46V15.22h4.41a.63.63,0,0,1,.46.19.57.57,0,0,1,.17.42v1.34a4.5,4.5,0,0,1,1.63-1.4,5,5,0,0,1,2.32-.55Z" fill="url(#linear-gradient)"/><circle cx="296.4" cy="38.38" r="8.11" transform="translate(256.16 334.53) rotate(-89.64)" fill="url(#linear-gradient-8)"/><path d="M296.47,31.68a6.72,6.72,0,0,1,5.73,10.15,7,7,0,0,1-2.48,2.42,6.71,6.71,0,0,1-6.73-.07,7,7,0,0,1-2.42-2.48,6.72,6.72,0,0,1,5.9-10Z" fill="url(#linear-gradient-9)"/><path d="M296.54,33.09a5.35,5.35,0,0,1,5.23,5.43,5.32,5.32,0,0,1-8.1,4.45,5.84,5.84,0,0,1-1.9-2,5.36,5.36,0,0,1,.12-5.33,5.35,5.35,0,0,1,4.65-2.56Z" fill="url(#linear-gradient-10)"/><path d="M296.62,34.51a4.74,4.74,0,0,1,2,.61A4.89,4.89,0,0,1,300,36.61a4.86,4.86,0,0,1,.44,2,4.69,4.69,0,0,1-.61,2,3.89,3.89,0,0,1-3.47,1.82,3.92,3.92,0,0,1-3.33-2.1,4.68,4.68,0,0,1-.45-2,4.69,4.69,0,0,1,.61-2,4.8,4.8,0,0,1,1.5-1.37A4.64,4.64,0,0,1,296.62,34.51Z" fill="url(#linear-gradient-11)"/><path d="M296.69,35.92a3.9,3.9,0,0,1,1.25.45,4.1,4.1,0,0,1,.85,1,4.22,4.22,0,0,1,.23,1.3,3.91,3.91,0,0,1-.44,1.24,3.94,3.94,0,0,1-1,.85,2.52,2.52,0,0,1-2.54-.21,3.92,3.92,0,0,1-.85-1,4.21,4.21,0,0,1-.23-1.29,3.88,3.88,0,0,1,.44-1.25,3.89,3.89,0,0,1,1-.85A4,4,0,0,1,296.69,35.92Z" fill="url(#linear-gradient-12)"/><polygon points="297.65 38.74 297.37 39.27 296.86 39.6 296.25 39.63 295.71 39.35 295.39 38.84 295.36 38.23 295.64 37.69 296.15 37.36 296.76 37.34 297.3 37.62 297.62 38.13 297.65 38.74" fill="#fff"/><circle cx="296.4" cy="38.38" r="6.98" transform="translate(-0.27 2.11) rotate(-0.41)" fill="#fff" opacity="0.44"/><circle cx="296.41" cy="38.38" r="6.06" transform="translate(-0.27 2.11) rotate(-0.41)" fill="#d7dfe6" opacity="0.53"/><circle cx="296.42" cy="38.38" r="5.14" transform="translate(-0.27 2.11) rotate(-0.41)" fill="#b5c6d4" opacity="0.61"/><circle cx="296.43" cy="38.38" r="4.21" transform="translate(-0.27 2.11) rotate(-0.41)" fill="#96b0c4" opacity="0.7"/><circle cx="296.44" cy="38.38" r="3.29" transform="translate(-0.27 2.11) rotate(-0.41)" fill="#779db5" opacity="0.79"/><circle cx="296.45" cy="38.38" r="2.37" fill="#588ca7" opacity="0.87"/><rect x="295.44" y="37.36" width="2.04" height="2.04" transform="translate(59.69 220.87) rotate(-45)" fill="#307d9b" opacity="0.96"/></g></g></g></svg>