<svg xmlns="http://www.w3.org/2000/svg" xmlns:xlink="http://www.w3.org/1999/xlink" viewBox="0 0 395.81 102.62"><defs><linearGradient id="linear-gradient" x1="225.97" y1="37.14" x2="240.91" y2="89.42" gradientUnits="userSpaceOnUse"><stop offset="0" stop-color="#a7a9ac"/><stop offset="1" stop-color="#808285"/></linearGradient><linearGradient id="linear-gradient-8" x1="379.58" y1="73.14" x2="395.81" y2="73.14" gradientTransform="translate(458.39 -315.01) rotate(89.64)" gradientUnits="userSpaceOnUse"><stop offset="0" stop-color="#00aeef"/><stop offset="1" stop-color="#f15a29"/></linearGradient><linearGradient id="linear-gradient-9" x1="381" y1="73.16" x2="394.43" y2="73.16" gradientUnits="userSpaceOnUse"><stop offset="0" stop-color="#00b9f2"/><stop offset="1" stop-color="#f47c4b"/></linearGradient><linearGradient id="linear-gradient-10" x1="382.41" y1="73.18" x2="393.06" y2="73.18" gradientUnits="userSpaceOnUse"><stop offset="0" stop-color="#44c8f5"/><stop offset="1" stop-color="#f79a70"/></linearGradient><linearGradient id="linear-gradient-11" x1="383.83" y1="73.2" x2="391.69" y2="73.2" gradientUnits="userSpaceOnUse"><stop offset="0" stop-color="#8ed8f8"/><stop offset="1" stop-color="#fbb998"/></linearGradient><linearGradient id="linear-gradient-12" x1="385.24" y1="73.22" x2="390.32" y2="73.22" gradientUnits="userSpaceOnUse"><stop offset="0" stop-color="#c7eafb"/><stop offset="1" stop-color="#fddac6"/></linearGradient><linearGradient id="linear-gradient-13" x1="46.51" y1="19.64" x2="70.5" y2="33.49" gradientUnits="userSpaceOnUse"><stop offset="0" stop-color="#00aeef"/><stop offset="1" stop-color="#3f61ad"/></linearGradient><linearGradient id="linear-gradient-14" x1="17.25" y1="75.95" x2="41.24" y2="89.8" xlink:href="#linear-gradient-13"/><linearGradient id="linear-gradient-15" x1="57.16" y1="59.02" x2="71.1" y2="67.07" xlink:href="#linear-gradient-13"/><linearGradient id="linear-gradient-16" x1="5.15" y1="38.03" x2="29.14" y2="51.88" xlink:href="#linear-gradient-13"/><linearGradient id="linear-gradient-17" x1="25.77" y1="4.16" x2="39.07" y2="11.84" xlink:href="#linear-gradient-13"/></defs><title>weather_brand_icon_noshadow</title><g id="Layer_2" data-name="Layer 2"><g id="Layer_1-2" data-name="Layer 1"><path d="M129.35,47.36V76.13a4.27,4.27,0,0,1-1.2,3.05,3.87,3.87,0,0,1-2.9,1.25H100.49a8.72,8.72,0,0,1-4.63-1.29,9.44,9.44,0,0,1-3.34-3.5,10,10,0,0,1-1.22-4.87V47.36h4.78a.67.67,0,0,1,.7.66V71a3.86,3.86,0,0,0,1.07,2.78,3.48,3.48,0,0,0,2.64,1.12h8.19a1.9,1.9,0,0,1-.78-.76,2.14,2.14,0,0,1-.29-1.09V47.36h4.79a.65.65,0,0,1,.69.66V74.21a.74.74,0,0,0,.19.53.58.58,0,0,0,.44.2h9.52a.58.58,0,0,0,.44-.2.74.74,0,0,0,.19-.53V48a.67.67,0,0,1,.69-.66Z" fill="url(#linear-gradient)"/><path d="M154.08,79.14a9.36,9.36,0,0,1-3.34-3.5,9.87,9.87,0,0,1-1.23-4.87v-14a8.75,8.75,0,0,1,9.2-9.39h8.44a8.76,8.76,0,0,1,9.2,9.39v7.61a3,3,0,0,1-.32,1.52,1.42,1.42,0,0,1-1.32.53H157.45A2.83,2.83,0,0,1,155,65.15V71a3.86,3.86,0,0,0,1.07,2.78,3.51,3.51,0,0,0,2.65,1.12h15.62a.65.65,0,0,1,.5.2.72.72,0,0,1,.19.53v4.76H158.71A8.69,8.69,0,0,1,154.08,79.14ZM156,53.77a3.84,3.84,0,0,0-1,2.91v3.58a.68.68,0,0,0,.63.72H170.3a.59.59,0,0,0,.5-.23.74.74,0,0,0,.19-.49V56.68q0-3.9-3.65-3.9h-8.63A3.71,3.71,0,0,0,156,53.77Z" fill="url(#linear-gradient)"/><path d="M218.78,49.81a8.88,8.88,0,0,1,2.61,6.81v21.7a2.11,2.11,0,0,1-.57,1.48,1.86,1.86,0,0,1-1.45.63H204.63A8.72,8.72,0,0,1,200,79.14a9.36,9.36,0,0,1-3.34-3.5,9.87,9.87,0,0,1-1.23-4.87v-2a9.86,9.86,0,0,1,1.23-4.86,9.36,9.36,0,0,1,3.34-3.5,8.72,8.72,0,0,1,4.63-1.29h10.65a.59.59,0,0,0,.5-.24.72.72,0,0,0,.19-.49V56.68a4,4,0,0,0-1-2.77,3.52,3.52,0,0,0-2.77-1.13H199.65a.64.64,0,0,1-.47-.23.69.69,0,0,1-.22-.5V47.36h13.23A9.24,9.24,0,0,1,218.78,49.81ZM202,73.69a3.48,3.48,0,0,0,2.64,1.12h10.71a.59.59,0,0,0,.44-.2.72.72,0,0,0,.19-.53V63.56a1.92,1.92,0,0,1-1.64,1h-9.7A3.48,3.48,0,0,0,202,65.68a3.86,3.86,0,0,0-1.07,2.78v2.45A3.86,3.86,0,0,0,202,73.69Z" fill="url(#linear-gradient)"/><path d="M255.4,75.56a.71.71,0,0,1,.17.49v4.38h-5.86a8,8,0,0,1-4.23-1.18,8.51,8.51,0,0,1-3.1-3.23,9,9,0,0,1-1.14-4.48V35.24h4.41a.63.63,0,0,1,.47.19.69.69,0,0,1,.17.48V51.14a2,2,0,0,1,.67-.79,1.75,1.75,0,0,1,1-.31h6.15v4.39a.61.61,0,0,1-.17.42.6.6,0,0,1-.47.19h-7.19V71.78a3.56,3.56,0,0,0,1,2.56,3.22,3.22,0,0,0,2.43,1h5.22A.63.63,0,0,1,255.4,75.56Z" fill="url(#linear-gradient)"/><path d="M272.45,34.76h4.41a.62.62,0,0,1,.46.18.65.65,0,0,1,.17.49v16.5a4.41,4.41,0,0,1,1.63-1.4,5,5,0,0,1,2.32-.55h7.36a8,8,0,0,1,5.86,2.19,8.58,8.58,0,0,1,2.21,6.34V80.43h-4.41a.61.61,0,0,1-.44-.21.66.66,0,0,1-.2-.46V58.63a3.57,3.57,0,0,0-1-2.56,3.21,3.21,0,0,0-2.43-1h-8.12a2.88,2.88,0,0,0-1.94,1,3.29,3.29,0,0,0-.85,2.1V80.43h-4.4a.61.61,0,0,1-.44-.21.66.66,0,0,1-.2-.46Z" fill="url(#linear-gradient)"/><path d="M319.46,79.25A8.69,8.69,0,0,1,316.38,76a9.12,9.12,0,0,1-1.13-4.48V58.63a8.32,8.32,0,0,1,2.41-6.36A8.41,8.41,0,0,1,323.72,50h7.77a8.41,8.41,0,0,1,6.06,2.29A8.32,8.32,0,0,1,340,58.63v7a2.78,2.78,0,0,1-.29,1.4c-.19.33-.6.49-1.22.49H322.56a2.58,2.58,0,0,1-2.26-1.16v5.42a3.59,3.59,0,0,0,1,2.56,3.24,3.24,0,0,0,2.44,1H338.1a.63.63,0,0,1,.47.18.71.71,0,0,1,.17.49v4.38h-15A8,8,0,0,1,319.46,79.25Zm1.8-23.36a3.53,3.53,0,0,0-1,2.68v3.29a.64.64,0,0,0,.58.67h13.51a.56.56,0,0,0,.47-.22.72.72,0,0,0,.17-.45V58.57c0-2.4-1.12-3.59-3.36-3.59h-7.95A3.38,3.38,0,0,0,321.26,55.89Z" fill="url(#linear-gradient)"/><path d="M374.35,50v4.39a.72.72,0,0,1-.17.45.56.56,0,0,1-.47.22h-7.25a2.51,2.51,0,0,0-1.91.79,3.25,3.25,0,0,0-.87,2V80.43h-4.41a.59.59,0,0,1-.43-.21.62.62,0,0,1-.2-.46V50H363a.6.6,0,0,1,.47.19.61.61,0,0,1,.17.42v1.34a4.41,4.41,0,0,1,1.63-1.4,4.92,4.92,0,0,1,2.31-.55Z" fill="url(#linear-gradient)"/><circle cx="387.69" cy="73.14" r="8.11" transform="translate(312.13 460.36) rotate(-89.64)" fill="url(#linear-gradient-8)"/><path d="M387.77,66.44a6.71,6.71,0,0,1,6.66,6.77,6.83,6.83,0,0,1-.94,3.38,6.7,6.7,0,0,1-9.21,2.34A6.68,6.68,0,0,1,381,73.11a6.94,6.94,0,0,1,.94-3.39,6.68,6.68,0,0,1,5.83-3.28Z" fill="url(#linear-gradient-9)"/><path d="M387.84,67.85a5.8,5.8,0,0,1,2.67.78,6,6,0,0,1,1.9,2,5.85,5.85,0,0,1,.65,2.67,5.76,5.76,0,0,1-.77,2.67,5.93,5.93,0,0,1-2,1.9,5.33,5.33,0,0,1-7.89-4.77,5.33,5.33,0,0,1,5.43-5.23Z" fill="url(#linear-gradient-10)"/><path d="M387.91,69.27a3.94,3.94,0,0,1,3.78,4.08,4.69,4.69,0,0,1-.61,2,4.76,4.76,0,0,1-1.49,1.37,3.93,3.93,0,0,1-3.94-.16A4.92,4.92,0,0,1,384.27,75a4.86,4.86,0,0,1-.44-2,4.69,4.69,0,0,1,.61-2,3.89,3.89,0,0,1,3.47-1.82Z" fill="url(#linear-gradient-11)"/><path d="M388,70.68a2.56,2.56,0,0,1,2.1,1.45,3.94,3.94,0,0,1,.24,1.29,3.9,3.9,0,0,1-.45,1.25,3.73,3.73,0,0,1-1,.85,2.52,2.52,0,0,1-2.54-.21,3.89,3.89,0,0,1-.85-1,3.94,3.94,0,0,1-.24-1.29,2.56,2.56,0,0,1,1.45-2.1A3.94,3.94,0,0,1,388,70.68Z" fill="url(#linear-gradient-12)"/><polygon points="388.95 73.5 388.67 74.03 388.15 74.36 387.55 74.39 387.01 74.11 386.68 73.59 386.66 72.99 386.94 72.45 387.45 72.12 388.06 72.1 388.6 72.38 388.92 72.89 388.95 73.5" fill="#fff"/><circle cx="387.69" cy="73.14" r="6.98" transform="translate(-0.51 2.77) rotate(-0.41)" fill="#fff" opacity="0.44"/><circle cx="387.7" cy="73.14" r="6.06" transform="translate(-0.51 2.77) rotate(-0.41)" fill="#d7dfe6" opacity="0.53"/><circle cx="387.72" cy="73.14" r="5.14" transform="translate(-0.51 2.77) rotate(-0.41)" fill="#b5c6d4" opacity="0.61"/><circle cx="387.73" cy="73.14" r="4.21" transform="translate(-0.51 2.77) rotate(-0.41)" fill="#96b0c4" opacity="0.7"/><circle cx="387.74" cy="73.14" r="3.29" transform="translate(-0.51 2.77) rotate(-0.41)" fill="#779db5" opacity="0.79"/><circle cx="387.75" cy="73.14" r="2.37" fill="#588ca7" opacity="0.87"/><rect x="386.74" y="72.12" width="2.04" height="2.04" transform="translate(61.86 295.61) rotate(-45)" fill="#307d9b" opacity="0.96"/><path d="M65.28,42.18c5.12-5.73,8.18-30,8.18-30S49.65,17.91,44.53,23.64s-3.74,13.53,2,18.65S60.16,47.91,65.28,42.18Z" fill="url(#linear-gradient-13)"/><path d="M15.27,80c-5.12,5.73-3.73,13.53,2,18.65S30.9,104.22,36,98.49s8.19-30,8.19-30S20.39,74.23,15.27,80Z" fill="url(#linear-gradient-14)"/><path d="M56,61.35c-3,3.33-2.17,7.86,1.16,10.84s7.93,3.26,10.9-.07,4.76-17.46,4.76-17.46S59,58,56,61.35Z" fill="url(#linear-gradient-15)"/><path d="M23.92,60.57c5.12-5.73,8.18-30,8.18-30S8.29,36.3,3.17,42s-3.74,13.54,2,18.65S18.8,66.3,23.92,60.57Z" fill="url(#linear-gradient-16)"/><path d="M25.78,16.72c3.18,2.84,7.56,3.11,10.4-.06S40.71,0,40.71,0s-13.2,3.2-16,6.38S22.6,13.88,25.78,16.72Z" fill="url(#linear-gradient-17)"/></g></g></svg>